HIERARCHY
ROOT Hips
{
	OFFSET -0.001795 -0.223333 0.028219
	CHANNELS 6 Xposition Yposition Zposition Zrotation Yrotation Xrotation 
	JOINT LeftUpLeg
	{
		OFFSET 0.069520 -0.091406 -0.006815
		CHANNELS 3 Zrotation Yrotation Xrotation
		JOINT LeftLeg
		{
			OFFSET 0.034277 -0.375199 -0.004496
			CHANNELS 3 Zrotation Yrotation Xrotation
			JOINT LeftFoot
			{
				OFFSET -0.013596 -0.397961 -0.043693
				CHANNELS 3 Zrotation Yrotation Xrotation
				JOINT LeftToe
				{
					OFFSET 0.026358 -0.055791 0.119288
					CHANNELS 3 Zrotation Yrotation Xrotation
					End Site
					{
						OFFSET 0.000000 0.000000 0.000000
					}
				}
			}
		}
	}
	JOINT RightUpLeg
	{
		OFFSET -0.067670 -0.090522 -0.004320
		CHANNELS 3 Zrotation Yrotation Xrotation
		JOINT RightLeg
		{
			OFFSET -0.038290 -0.382569 -0.008850
			CHANNELS 3 Zrotation Yrotation Xrotation
			JOINT RightFoot
			{
				OFFSET 0.015774 -0.398415 -0.042312
				CHANNELS 3 Zrotation Yrotation Xrotation
				JOINT RightToe
				{
					OFFSET -0.025372 -0.048144 0.123348
					CHANNELS 3 Zrotation Yrotation Xrotation
					End Site
					{
						OFFSET 0.000000 0.000000 0.000000
					}
				}
			}
		}
	}
	JOINT Spine
	{
		OFFSET -0.002533 0.108963 -0.026696
		CHANNELS 3 Zrotation Yrotation Xrotation
		JOINT Spine1
		{
			OFFSET 0.005487 0.135180 0.001092
			CHANNELS 3 Zrotation Yrotation Xrotation
			JOINT Spine2
			{
				OFFSET 0.001457 0.052922 0.025425
				CHANNELS 3 Zrotation Yrotation Xrotation
				JOINT Neck
				{
					OFFSET -0.002778 0.213870 -0.042857
					CHANNELS 3 Zrotation Yrotation Xrotation
					JOINT Head
					{
						OFFSET 0.005152 0.064970 0.051349
						CHANNELS 3 Zrotation Yrotation Xrotation
						End Site
						{
							OFFSET 0.000000 0.000000 0.000000
						}
					}
				}
				JOINT LeftShoulder
				{
					OFFSET 0.078845 0.121749 -0.034090
					CHANNELS 3 Zrotation Yrotation Xrotation
					JOINT LeftArm
					{
						OFFSET 0.090977 0.030469 -0.008868
						CHANNELS 3 Zrotation Yrotation Xrotation
						JOINT LeftForeArm
						{
							OFFSET 0.259612 -0.012772 -0.027456
							CHANNELS 3 Zrotation Yrotation Xrotation
							JOINT LeftHand
							{
								OFFSET 0.249234 0.008986 -0.001171
								CHANNELS 3 Zrotation Yrotation Xrotation
								End Site
								{
									OFFSET 0.000000 0.000000 0.000000
								}
							}
						}
					}
				}
				JOINT RightShoulder
				{
					OFFSET -0.081759 0.118833 -0.038615
					CHANNELS 3 Zrotation Yrotation Xrotation
					JOINT RightArm
					{
						OFFSET -0.096012 0.032551 -0.009143
						CHANNELS 3 Zrotation Yrotation Xrotation
						JOINT RightForeArm
						{
							OFFSET -0.253742 -0.013329 -0.021401
							CHANNELS 3 Zrotation Yrotation Xrotation
							JOINT RightHand
							{
								OFFSET -0.255298 0.007772 -0.005559
								CHANNELS 3 Zrotation Yrotation Xrotation
								End Site
								{
									OFFSET 0.000000 0.000000 0.000000
								}
							}
						}
					}
				}
			}
		}
	}
}
MOTION
Frames: 12
Frame Time: 0.050000
-0.033111 0.935367 0.067911 3.510712 -16.088453 -1.073086 3.295665 -0.636860 -22.453615 -7.835547 2.187046 14.077031 11.164337 20.491396 14.454232 0.000000 0.000000 0.000000 -3.486993 -0.179599 13.653246 3.043986 -0.233824 -5.237349 -3.965076 -11.338054 5.392674 0.000000 0.000000 0.000000 5.705731 -0.863132 11.713348 -5.326515 1.671405 -26.767453 2.476507 17.052619 32.838760 8.417793 -1.164284 -33.498580 0.000000 0.000000 0.000000 -20.868387 -3.313458 -0.966048 -48.424903 -7.503834 -5.147750 -13.103012 -23.990947 3.713711 0.000000 0.000000 0.000000 26.266152 -7.548142 -4.093447 53.918873 8.685835 -4.905380 8.258820 20.782833 2.605795 0.000000 0.000000 0.000000 
-0.038527 0.930660 0.091091 3.096968 -17.484148 -1.052076 3.827303 -0.430635 -22.580269 -6.560759 1.339296 6.843530 11.481655 20.724413 14.849049 0.000000 0.000000 0.000000 -3.817162 -0.053632 14.659329 3.276384 -0.229969 -4.214968 -3.364078 -9.985217 4.971661 0.000000 0.000000 0.000000 5.396098 -0.858644 12.610100 -5.503785 1.702413 -27.552723 3.277571 17.616884 33.814465 9.160566 -1.465288 -34.633994 0.000000 0.000000 0.000000 -20.992620 -2.673288 -1.223979 -48.326882 -7.231662 -5.351059 -12.780702 -23.486793 3.591632 0.000000 0.000000 0.000000 26.533575 -7.542342 -4.179968 52.880915 9.127709 -4.772388 8.869305 20.618784 2.669916 0.000000 0.000000 0.000000 
-0.044221 0.924370 0.119564 2.855194 -18.869245 -1.356480 4.296656 -0.227092 -22.583357 -4.532958 0.691011 -0.281168 11.204280 19.812607 16.957050 0.000000 0.000000 0.000000 -4.348081 0.163738 16.609169 3.687377 -0.231907 -3.701065 -3.596107 -9.677240 3.354856 0.000000 0.000000 0.000000 4.679630 -0.785912 13.467085 -5.146681 1.607704 -27.079330 2.945901 18.963831 33.663679 10.660097 -2.009730 -35.630833 0.000000 0.000000 0.000000 -20.105440 -2.576329 -1.304076 -49.140757 -7.001520 -5.493654 -10.794562 -22.176003 2.974593 0.000000 0.000000 0.000000 26.047611 -8.192125 -4.437398 53.929773 9.730310 -4.502350 8.977736 20.553055 2.706738 0.000000 0.000000 0.000000 
-0.049951 0.917230 0.153797 2.492036 -19.672249 -1.121313 4.499212 -0.120100 -22.686831 -2.836964 0.451796 -4.195272 9.883358 17.694325 17.549420 0.000000 0.000000 0.000000 -4.814372 0.400136 18.876738 3.662848 -0.231189 -3.237506 -2.907920 -8.719619 4.346286 0.000000 0.000000 0.000000 3.626103 -0.667248 13.810207 -5.987123 1.786115 -27.537539 4.495553 18.579288 34.548602 10.974216 -2.189164 -36.545437 0.000000 0.000000 0.000000 -20.221506 -2.600852 -1.044573 -48.715732 -7.213200 -5.477746 -10.320388 -20.180024 2.635850 0.000000 0.000000 0.000000 27.224775 -7.886342 -4.620503 53.041127 9.435497 -4.657101 7.986656 20.606103 2.512534 0.000000 0.000000 0.000000 
-0.054839 0.911727 0.194579 1.517431 -20.811997 -1.020831 5.053833 0.097136 -22.645839 -2.776349 0.429673 -2.033165 9.154537 16.373208 18.744508 0.000000 0.000000 0.000000 -5.170693 0.647499 20.342750 3.537818 -0.214845 -0.372327 -2.293711 -6.974606 3.349867 0.000000 0.000000 0.000000 3.196551 -0.605668 14.059102 -5.832334 1.747526 -28.167382 4.141339 19.112964 35.579151 10.771879 -2.086996 -37.061850 0.000000 0.000000 0.000000 -19.594018 -1.836923 -1.276028 -48.918185 -7.371334 -5.606830 -9.329330 -19.105478 2.341828 0.000000 0.000000 0.000000 28.384655 -7.654505 -4.619868 52.757687 9.622038 -4.739602 6.900715 20.709915 2.350961 0.000000 0.000000 0.000000 
-0.058168 0.912534 0.242387 1.399974 -21.673157 -0.831134 5.173897 0.168867 -22.547988 -4.173539 0.719244 2.417387 9.780291 16.973838 21.500045 0.000000 0.000000 0.000000 -6.516609 1.142391 21.151706 2.355757 -0.060384 3.233739 -0.624440 -5.173107 6.058073 0.000000 0.000000 0.000000 2.388678 -0.485605 12.594944 -6.814525 1.937995 -26.746204 5.316792 18.508042 35.098816 9.187551 -1.444988 -37.056293 0.000000 0.000000 0.000000 -20.428802 -1.702308 -1.178475 -48.496077 -6.439979 -5.873258 -9.167376 -18.141529 2.216843 0.000000 0.000000 0.000000 27.281021 -7.093980 -4.562192 53.419939 8.093914 -5.177571 6.861465 19.774611 2.163819 0.000000 0.000000 0.000000 
-0.059328 0.921110 0.296456 1.254427 -21.054738 -1.087106 4.048173 -0.213905 -20.680131 -4.201269 0.832244 5.588870 9.086085 16.156748 21.929759 0.000000 0.000000 0.000000 -7.214734 1.279585 21.213761 1.373179 0.318821 8.990160 1.070192 -4.945788 11.605080 0.000000 0.000000 0.000000 1.535357 -0.390494 11.350088 -5.729200 1.707374 -27.161299 4.990445 18.065487 36.436493 9.137143 -1.510887 -36.838966 0.000000 0.000000 0.000000 -21.005119 -0.441675 -1.864229 -48.471368 -6.253262 -6.105988 -7.805122 -17.098648 1.906273 0.000000 0.000000 0.000000 27.524106 -7.768534 -4.992727 53.330239 7.679150 -5.553691 6.677870 19.153025 2.080374 0.000000 0.000000 0.000000 
-0.058715 0.934523 0.353383 1.242521 -21.060482 -1.457423 2.088011 -0.667218 -16.876308 -3.578821 0.732077 6.248633 9.269289 16.613718 19.979900 0.000000 0.000000 0.000000 -8.912883 1.512117 18.505045 1.711443 0.923312 17.444025 3.554319 -4.333458 19.005395 0.000000 0.000000 0.000000 0.971785 -0.320128 9.698926 -5.580858 1.652930 -26.210529 5.591149 18.089140 36.266799 7.943903 -1.037306 -35.592395 0.000000 0.000000 0.000000 -21.050605 0.040160 -2.183003 -48.984737 -5.337133 -6.460635 -7.900793 -17.582155 1.984697 0.000000 0.000000 0.000000 26.049461 -7.083710 -4.384985 54.536231 6.164961 -6.175714 7.400697 18.238658 2.051219 0.000000 0.000000 0.000000 
-0.057468 0.945551 0.408014 1.068285 -18.912045 -2.082451 -0.075305 -0.928144 -12.284162 -3.419412 0.642174 5.604840 8.635709 16.221502 17.998609 0.000000 0.000000 0.000000 -9.321769 1.111521 14.019667 3.128869 1.714126 29.103289 2.896638 -7.472012 25.999798 0.000000 0.000000 0.000000 0.948540 -0.339066 10.151695 -5.219350 1.621111 -26.988214 4.989065 16.482490 36.212160 9.217356 -1.737988 -35.633393 0.000000 0.000000 0.000000 -20.247856 0.028332 -2.000365 -49.031706 -5.263700 -6.541618 -9.666966 -18.654258 2.406065 0.000000 0.000000 0.000000 25.811565 -9.122063 -5.775399 54.808529 4.753907 -6.754108 8.012780 18.854316 2.243327 0.000000 0.000000 0.000000 
-0.057263 0.951971 0.457938 0.866106 -18.058330 -2.964839 -1.589931 -0.742668 -7.118068 -2.467720 0.408474 4.286665 8.180612 15.901355 15.746736 0.000000 0.000000 0.000000 -9.919483 0.832860 7.061752 5.986422 2.113671 41.545023 -1.036642 -12.581434 27.127598 0.000000 0.000000 0.000000 1.345192 -0.394096 11.004742 -5.422304 1.664836 -26.445943 3.775677 14.603775 35.045720 9.134466 -1.903298 -35.683347 0.000000 0.000000 0.000000 -20.385963 -0.631434 -1.278457 -47.627511 -5.356244 -6.372638 -10.923147 -20.126373 2.853917 0.000000 0.000000 0.000000 26.578045 -8.430958 -5.894230 53.602531 3.879858 -6.879644 8.215193 20.566630 2.462603 0.000000 0.000000 0.000000 
-0.058978 0.957321 0.504217 0.473540 -17.178668 -4.039899 -2.447342 -0.281752 -2.034187 -1.807619 0.264071 2.777005 7.463067 15.026891 15.313113 0.000000 0.000000 0.000000 -9.688561 0.628070 0.741288 8.983302 1.375049 48.502728 -5.141107 -17.094804 22.621490 0.000000 0.000000 0.000000 1.862655 -0.465369 11.893720 -5.308982 1.651382 -26.444651 2.538306 12.563609 34.735361 9.421792 -2.302401 -35.760201 0.000000 0.000000 0.000000 -20.658875 -1.513118 -0.359950 -46.246707 -6.005880 -6.109185 -10.656068 -21.896654 3.107551 0.000000 0.000000 0.000000 27.645212 -7.867126 -6.193011 52.677698 3.650321 -6.799849 9.349928 21.473570 2.732543 0.000000 0.000000 0.000000 
-0.062620 0.961512 0.547836 -0.193523 -16.146646 -4.848355 -2.615913 0.333123 2.920119 -1.307151 0.177871 1.336511 6.982291 14.566742 13.322530 0.000000 0.000000 0.000000 -8.887502 0.582576 -4.510008 11.004859 0.116959 48.409169 -8.182576 -21.003848 17.881729 0.000000 0.000000 0.000000 2.750540 -0.577583 12.507345 -5.320057 1.670284 -26.794354 1.753063 10.821723 34.978520 9.388212 -2.568798 -35.253383 0.000000 0.000000 0.000000 -20.101659 -2.294391 0.439855 -45.589698 -7.872905 -5.530019 -10.171894 -23.336472 3.265888 0.000000 0.000000 0.000000 28.507502 -8.105965 -6.877935 51.929808 3.443890 -6.744080 10.565722 23.036727 3.159098 0.000000 0.000000 0.000000 
